M48
METRIC,TZ
T1C0.400
%
G90
G05
T1
X121.666Y-79.248
X124.46Y-80.264
X124.46Y-81.788
X124.46Y-83.312
X124.46Y-84.836
X124.46Y-86.36
X125.984Y-80.264
X125.984Y-81.788
X125.984Y-83.312
X125.984Y-84.836
X125.984Y-86.36
X127.508Y-80.264
X127.508Y-81.788
X127.508Y-83.312
X127.508Y-84.836
X127.508Y-86.36
X129.032Y-80.264
X129.032Y-81.788
X129.032Y-83.312
X129.032Y-84.836
X129.032Y-86.36
X130.556Y-80.264
X130.556Y-81.788
X130.556Y-83.312
X130.556Y-84.836
X130.556Y-86.36
X132.08Y-80.264
X132.08Y-81.788
X132.08Y-83.312
X132.08Y-84.836
X132.08Y-86.36
X133.604Y-80.264
X133.604Y-81.788
X133.604Y-83.312
X133.604Y-84.836
X133.604Y-86.36
X135.636Y-80.264
X135.636Y-81.788
X135.636Y-83.312
X135.636Y-84.836
X135.636Y-86.36
X137.16Y-80.264
X137.16Y-81.788
X137.16Y-83.312
X137.16Y-84.836
X137.16Y-86.36
X138.684Y-80.264
X138.684Y-81.788
X138.684Y-83.312
X138.684Y-84.836
X138.684Y-86.36
X140.208Y-80.264
X140.208Y-81.788
X140.208Y-83.312
X140.208Y-84.836
X140.208Y-86.36
X141.732Y-80.264
X141.732Y-81.788
X141.732Y-83.312
X141.732Y-84.836
X141.732Y-86.36
X142.875Y-74.549
X143.256Y-80.264
X143.256Y-81.788
X143.256Y-83.312
X143.256Y-84.836
X143.256Y-86.36
X144.78Y-80.264
X144.78Y-81.788
X144.78Y-83.312
X144.78Y-84.836
X144.78Y-86.36
T0
M30
