%FSLAX46Y46*%
G04 Gerber Fmt 4.6, Leading zero omitted, Abs format (unit mm)*
G04 Created by KiCad (PCBNEW (2014-08-31 BZR 5107)-product) date tor 20 aug 2015 12:53:14*
%MOMM*%
G01*
G04 APERTURE LIST*
%ADD10C,0.100000*%
%ADD11C,0.150000*%
%ADD12C,0.381000*%
%ADD13R,1.800860X3.500120*%
%ADD14R,6.000000X5.000000*%
%ADD15R,10.800080X8.150860*%
%ADD16R,0.899160X3.200400*%
%ADD17R,5.000000X4.000000*%
%ADD18R,1.200000X0.900000*%
%ADD19R,1.500000X1.250000*%
G04 APERTURE END LIST*
D10*
D11*
X121412000Y-90809000D02*
X121862000Y-91359000D01*
X121862000Y-91359000D02*
X120962000Y-91359000D01*
X120962000Y-91359000D02*
X121412000Y-90809000D01*
X121962000Y-90809000D02*
X120862000Y-90809000D01*
X119661940Y-89259860D02*
X120012460Y-89259860D01*
X123162060Y-89259860D02*
X122811540Y-89259860D01*
X119661940Y-93309440D02*
X120012460Y-93309440D01*
X119661940Y-88808560D02*
X120012460Y-88808560D01*
X123162060Y-88808560D02*
X122811540Y-88808560D01*
X123162060Y-93309440D02*
X122811540Y-93309440D01*
X119661940Y-88808560D02*
X119661940Y-93309440D01*
X123162060Y-88808560D02*
X123162060Y-93309440D01*
X112524000Y-71876000D02*
X119124000Y-71876000D01*
X119124000Y-71876000D02*
X119124000Y-77476000D01*
X119124000Y-77476000D02*
X112524000Y-77476000D01*
X112524000Y-77476000D02*
X112524000Y-71876000D01*
X112524000Y-96260000D02*
X119124000Y-96260000D01*
X119124000Y-96260000D02*
X119124000Y-101860000D01*
X119124000Y-101860000D02*
X112524000Y-101860000D01*
X112524000Y-101860000D02*
X112524000Y-96260000D01*
X145036000Y-71876000D02*
X151636000Y-71876000D01*
X151636000Y-71876000D02*
X151636000Y-77476000D01*
X151636000Y-77476000D02*
X145036000Y-77476000D01*
X145036000Y-77476000D02*
X145036000Y-71876000D01*
X145036000Y-96260000D02*
X151636000Y-96260000D01*
X151636000Y-96260000D02*
X151636000Y-101860000D01*
X151636000Y-101860000D02*
X145036000Y-101860000D01*
X145036000Y-101860000D02*
X145036000Y-96260000D01*
D12*
X133977380Y-88452960D02*
X123578620Y-88452960D01*
X123578620Y-88452960D02*
X123578620Y-80655160D01*
X123578620Y-80655160D02*
X125978920Y-79354680D01*
X125978920Y-79354680D02*
X131577080Y-79354680D01*
X131577080Y-79354680D02*
X133977380Y-80655160D01*
X133977380Y-80655160D02*
X133977380Y-88452960D01*
X145407380Y-88452960D02*
X135008620Y-88452960D01*
X135008620Y-88452960D02*
X135008620Y-80655160D01*
X135008620Y-80655160D02*
X137408920Y-79354680D01*
X137408920Y-79354680D02*
X143007080Y-79354680D01*
X143007080Y-79354680D02*
X145407380Y-80655160D01*
X145407380Y-80655160D02*
X145407380Y-88452960D01*
D11*
X112389000Y-89168000D02*
X112389000Y-84568000D01*
X112389000Y-84568000D02*
X117989000Y-84568000D01*
X117989000Y-84568000D02*
X117989000Y-89168000D01*
X117989000Y-89168000D02*
X112389000Y-89168000D01*
X112389000Y-94502000D02*
X112389000Y-89902000D01*
X112389000Y-89902000D02*
X117989000Y-89902000D01*
X117989000Y-89902000D02*
X117989000Y-94502000D01*
X117989000Y-94502000D02*
X112389000Y-94502000D01*
X112389000Y-83834000D02*
X112389000Y-79234000D01*
X112389000Y-79234000D02*
X117989000Y-79234000D01*
X117989000Y-79234000D02*
X117989000Y-83834000D01*
X117989000Y-83834000D02*
X112389000Y-83834000D01*
X120023000Y-79843000D02*
X121023000Y-79843000D01*
X121023000Y-81193000D02*
X120023000Y-81193000D01*
X120023000Y-82256000D02*
X121023000Y-82256000D01*
X121023000Y-83606000D02*
X120023000Y-83606000D01*
X124208000Y-71876000D02*
X130808000Y-71876000D01*
X130808000Y-71876000D02*
X130808000Y-77476000D01*
X130808000Y-77476000D02*
X124208000Y-77476000D01*
X124208000Y-77476000D02*
X124208000Y-71876000D01*
X135511000Y-71876000D02*
X142111000Y-71876000D01*
X142111000Y-71876000D02*
X142111000Y-77476000D01*
X142111000Y-77476000D02*
X135511000Y-77476000D01*
X135511000Y-77476000D02*
X135511000Y-71876000D01*
X121023000Y-84367000D02*
X120023000Y-84367000D01*
X120023000Y-86067000D02*
X121023000Y-86067000D01*
X119260881Y-92940095D02*
X118260881Y-92940095D01*
X118260881Y-92702000D01*
X118308500Y-92559142D01*
X118403738Y-92463904D01*
X118498976Y-92416285D01*
X118689452Y-92368666D01*
X118832310Y-92368666D01*
X119022786Y-92416285D01*
X119118024Y-92463904D01*
X119213262Y-92559142D01*
X119260881Y-92702000D01*
X119260881Y-92940095D01*
X118356119Y-91987714D02*
X118308500Y-91940095D01*
X118260881Y-91844857D01*
X118260881Y-91606761D01*
X118308500Y-91511523D01*
X118356119Y-91463904D01*
X118451357Y-91416285D01*
X118546595Y-91416285D01*
X118689452Y-91463904D01*
X119260881Y-92035333D01*
X119260881Y-91416285D01*
X119324381Y-88780905D02*
X118324381Y-88780905D01*
X119324381Y-88209476D02*
X118752952Y-88638048D01*
X118324381Y-88209476D02*
X118895810Y-88780905D01*
X119292667Y-94980095D02*
X119292667Y-94503904D01*
X119578381Y-95075333D02*
X118578381Y-94742000D01*
X119578381Y-94408666D01*
X118832334Y-79700381D02*
X118499000Y-79224190D01*
X118260905Y-79700381D02*
X118260905Y-78700381D01*
X118641858Y-78700381D01*
X118737096Y-78748000D01*
X118784715Y-78795619D01*
X118832334Y-78890857D01*
X118832334Y-79033714D01*
X118784715Y-79128952D01*
X118737096Y-79176571D01*
X118641858Y-79224190D01*
X118260905Y-79224190D01*
X119784715Y-79700381D02*
X119213286Y-79700381D01*
X119499000Y-79700381D02*
X119499000Y-78700381D01*
X119403762Y-78843238D01*
X119308524Y-78938476D01*
X119213286Y-78986095D01*
X118832334Y-82240381D02*
X118499000Y-81764190D01*
X118260905Y-82240381D02*
X118260905Y-81240381D01*
X118641858Y-81240381D01*
X118737096Y-81288000D01*
X118784715Y-81335619D01*
X118832334Y-81430857D01*
X118832334Y-81573714D01*
X118784715Y-81668952D01*
X118737096Y-81716571D01*
X118641858Y-81764190D01*
X118260905Y-81764190D01*
X119213286Y-81335619D02*
X119260905Y-81288000D01*
X119356143Y-81240381D01*
X119594239Y-81240381D01*
X119689477Y-81288000D01*
X119737096Y-81335619D01*
X119784715Y-81430857D01*
X119784715Y-81526095D01*
X119737096Y-81668952D01*
X119165667Y-82240381D01*
X119784715Y-82240381D01*
X118832334Y-87225143D02*
X118784715Y-87272762D01*
X118641858Y-87320381D01*
X118546620Y-87320381D01*
X118403762Y-87272762D01*
X118308524Y-87177524D01*
X118260905Y-87082286D01*
X118213286Y-86891810D01*
X118213286Y-86748952D01*
X118260905Y-86558476D01*
X118308524Y-86463238D01*
X118403762Y-86368000D01*
X118546620Y-86320381D01*
X118641858Y-86320381D01*
X118784715Y-86368000D01*
X118832334Y-86415619D01*
X119784715Y-87320381D02*
X119213286Y-87320381D01*
X119499000Y-87320381D02*
X119499000Y-86320381D01*
X119403762Y-86463238D01*
X119308524Y-86558476D01*
X119213286Y-86606095D01*
%LPC*%
D13*
X121412000Y-88559640D03*
X121412000Y-93558360D03*
D14*
X115824000Y-74676000D03*
X115824000Y-99060000D03*
X148336000Y-74676000D03*
X148336000Y-99060000D03*
D15*
X128778000Y-83253580D03*
D16*
X124968000Y-93855540D03*
X126238000Y-93855540D03*
X127508000Y-93855540D03*
X130048000Y-93855540D03*
X131318000Y-93855540D03*
X132588000Y-93855540D03*
D15*
X140208000Y-83253580D03*
D16*
X136398000Y-93855540D03*
X137668000Y-93855540D03*
X138938000Y-93855540D03*
X141478000Y-93855540D03*
X142748000Y-93855540D03*
X144018000Y-93855540D03*
D17*
X115189000Y-86868000D03*
X115189000Y-92202000D03*
X115189000Y-81534000D03*
D18*
X121623000Y-80518000D03*
X119423000Y-80518000D03*
X121623000Y-82931000D03*
X119423000Y-82931000D03*
D14*
X127508000Y-74676000D03*
X138811000Y-74676000D03*
D19*
X119273000Y-85217000D03*
X121773000Y-85217000D03*
M02*
